<svg xmlns="http://www.w3.org/2000/svg" viewBox="0 0 1280 640" width="1280" height="640">
  <defs>
    <linearGradient id="banner-bg" x1="0%" y1="0%" x2="100%" y2="100%">
      <stop offset="0%" style="stop-color:#2c3e50;stop-opacity:1" />
      <stop offset="100%" style="stop-color:#1a252f;stop-opacity:1" />
    </linearGradient>
  </defs>

  <!-- Background -->
  <rect width="1280" height="640" fill="url(#banner-bg)"/>

  <!-- Decorative elements -->
  <circle cx="200" cy="150" r="120" fill="#3498db" opacity="0.06"/>
  <circle cx="1150" cy="500" r="100" fill="#3498db" opacity="0.06"/>

  <!-- Top accent bar -->
  <rect x="0" y="0" width="1280" height="8" fill="#3498db"/>

  <!-- Vuefrag badge -->
  <g transform="translate(80, 80)">
    <rect width="140" height="50" rx="8" fill="#3498db"/>
    <text x="70" y="33" text-anchor="middle" font-family="system-ui, -apple-system, sans-serif" font-size="22" font-weight="700" fill="white">Vuefrag</text>
  </g>

  <!-- Package name -->
  <text x="80" y="280" font-family="system-ui, -apple-system, sans-serif" font-size="72" font-weight="700" fill="white">vue-use-to-number</text>

  <!-- Description -->
  <text x="80" y="360" font-family="system-ui, -apple-system, sans-serif" font-size="32" fill="#94a3b8">Vue 3 reactive conversion of string/ref to number</text>

  <!-- Install command -->
  <g transform="translate(80, 420)">
    <rect width="484.8" height="60" rx="8" fill="#0f172a"/>
    <text x="20" y="40" font-family="ui-monospace, monospace" font-size="24" fill="#94a3b8">npm install</text>
    <text x="200" y="40" font-family="ui-monospace, monospace" font-size="24" fill="#3498db">vue-use-to-number</text>
  </g>

  <!-- Category badge -->
  <g transform="translate(80, 520)">
    <rect width="158" height="40" rx="20" fill="#3498db" opacity="0.2"/>
    <text x="79" y="27" text-anchor="middle" font-family="system-ui, -apple-system, sans-serif" font-size="18" fill="#3498db">Utilities</text>
  </g>

  <!-- Category icon (top right corner) -->
  <g>
    <path d="M1040 120l-40 40 40 40" fill="none" stroke="#3498db" stroke-width="12" stroke-linecap="round" stroke-linejoin="round"/><path d="M1120 120l40 40-40 40" fill="none" stroke="#3498db" stroke-width="12" stroke-linecap="round" stroke-linejoin="round"/><line x1="1105" y1="110" x2="1055" y2="190" stroke="#3498db" stroke-width="10" stroke-linecap="round"/>
  </g>
</svg>